<?xml version="1.0" encoding="UTF-8" standalone="no"?>
<svg
   version="1.1"
   style="display:block"
   viewBox="0 0 10000 10000"
   width="5000"
   height="5000"
   preserveAspectRatio="none"
   id="svg88"
   xmlns:xlink="http://www.w3.org/1999/xlink"
   xmlns="http://www.w3.org/2000/svg"
   xmlns:svg="http://www.w3.org/2000/svg">
  <defs
     id="defs88">
    <linearGradient
       id="linearGradient88">
      <stop
         style="stop-color:#ffc000;stop-opacity:1;"
         offset="0"
         id="stop88" />
      <stop
         style="stop-color:#f4cf28;stop-opacity:1;"
         offset="1"
         id="stop89" />
    </linearGradient>
    <linearGradient
       xlink:href="#linearGradient88"
       id="linearGradient89"
       x1="1011.0853"
       y1="546.56396"
       x2="1011.0853"
       y2="1294.3201"
       gradientUnits="userSpaceOnUse" />
  </defs>
  <g
     id="g94"
     transform="matrix(9,0,0,9,-4199.5222,-4033.666)">
    <path
       fill="#aacfc5"
       d="m 879.907,457.074 287.193,0.013 -0.04,44.864 c 3.24,2.867 19.75,10 24.69,12.47 12.96,6.389 25.44,13.717 37.34,21.925 78.92,53.715 132.96,136.868 150,230.798 12.52,69.299 4.93,140.734 -21.87,205.854 -8.68,20.541 -18.4,37.682 -29.72,56.732 18.94,13.51 47.27,27.25 50.42,52.85 5.72,46.45 -38.14,84.91 -83.06,84.54 0.53,23.93 -10.04,31.78 -28.9,43.66 -4.61,0.9 -25.48,8.76 -29.32,11.4 -12.66,3.85 -22.53,6.73 -35.1,11.68 11.08,20.27 22.39,40.42 33.92,60.44 6.74,11.63 16.42,24.62 20.57,37.25 1.43,4.36 1.57,9.28 0.11,13.65 -1.41,4.24 -4.37,7.86 -8.54,9.61 -9.99,4.19 -175.54,2.01 -200.84,2.06 -4.61,3.06 -15.6,21.21 -19.27,26.94 1.94,-7.89 3.5,-18.51 4.93,-26.69 -28.6,-0.87 -60.612,-0.17 -89.498,-0.1 6.748,8.19 12.838,14.25 20.284,21.72 -7.797,-2.97 -48.949,-21.18 -51.701,-21.25 -76.999,-2.02 -158.286,1.39 -235,-0.66 -9.764,0.27 -24.941,2.21 -32.955,-4.51 -6.784,-5.53 -8.332,-16.91 -3.643,-24.51 23.303,-37.75 46.685,-78.72 73.336,-113.89 6.228,-8.21 43.978,-5.3 55.949,-5.06 -2.274,-2.19 -4.507,-4.42 -6.695,-6.69 -5.814,-6.13 -5.818,-9.83 -5.651,-17.91 -35.837,-0.22 -59.182,-10.03 -81.318,-39.6 -12.224,-16.33 -19.467,-35.55 -16.267,-56.17 5.217,-33.6 37.786,-41.64 61.454,-59.23 l 1.29,-0.97 c -14.69,-20 -26.869,-45.052 -35.717,-68.234 -33.809,-89.729 -30.792,-189.182 8.394,-276.697 35.033,-77.778 105.228,-148.903 185.278,-179.32 -0.405,-15.261 -0.089,-31.622 -0.053,-46.965 z"
       id="path2"
       style="display:inline;fill:url(#linearGradient89)" />
    <g
       id="g92"
       style="display:inline" />
    <path
       fill="#78a69d"
       d="m 907.756,1172.4 c -2.174,-11.06 -0.976,-27.9 12.657,-30.65 3.823,-0.75 7.783,0.14 10.92,2.45 15.068,11.08 -5.33,25.12 -12.812,31.31 -4.305,-0.85 -6.575,-1.67 -10.765,-3.11 z"
       id="path49"
       style="display:block;fill:#14213d;fill-opacity:1" />
    <path
       fill="#78a69d"
       d="m 1135.74,1116.98 c 16.4,-1.03 7.81,5.74 14.77,15.66 2.29,3.26 5.36,8.38 5.73,12.21 -1.38,5.67 -4.13,6.87 -8.94,10.09 -22.16,2.72 -26.7,-23.98 -11.56,-37.96 z"
       id="path66"
       style="display:block;fill:#14213d;fill-opacity:1" />
    <path
       fill="rgb(120,166,157)"
       d="m 1389.13,981.835 c 7.34,0.776 10.56,4.08 13.65,10.639 7.92,18.226 1.14,21.156 -10.74,32.536 -5.04,4.84 1.62,11.46 -11.32,16.28 -5.87,-2.04 -16.74,-8.02 -16.83,-15.24 -0.12,-10.22 12.4,-15.89 18.18,-22.86 4.11,-4.942 1.45,-10.683 1.45,-16.639 2.02,-3.613 1.34,-2.47 5.61,-4.716 z"
       id="path83"
       style="display:block;fill:#14213d;fill-opacity:1" />
    <path
       fill="rgb(120,166,157)"
       d="m 666.112,996.913 c 12.249,0.177 16.78537,14.7097 15.35437,24.5097 -23.47263,9.5895 -7.68373,18.1432 -19.06237,27.6773 -7.296,-0.07 -12.645,-2.8 -16.677,-9.29 -5.484,-9.33 5.688,-15.04 8.669,-21.11 5.725,-11.66 -0.699,-14.28 11.716,-21.787 z"
       id="path84"
       style="display:block;fill:#14213d;fill-opacity:1" />
    <path
       fill="rgb(120,166,157)"
       d="m 1394.93,936.006 c 6.91,-0.222 11.55,0.701 12.16,9.884 0.33,4.894 -1.34,7.953 -4.9,11.342 -8.32,-0.37 -12.33,-3.221 -11.59,-13.23 0.24,-3.41 1.51,-5.87 4.33,-7.996 z"
       id="path86"
       style="display:block;fill:#14213d;fill-opacity:1" />
    <path
       fill="rgb(120,166,157)"
       d="m 1113.44,1090.76 c 17.77,0.36 9.51,20.22 -1.6,26.02 -6.06,-0.71 -12.13,-4.03 -10.49,-11.4 1.69,-7.56 6.03,-10.46 12.09,-14.62 z"
       id="path67"
       style="display:block;fill:#14213d;fill-opacity:1" />
    <path
       fill="rgb(120,166,157)"
       d="m 916.189,1091.79 c 13.567,0.45 15.686,17.37 6.752,26.1 -11.075,0.5 -13.018,-8.69 -12.089,-17.74 0.499,-4.85 1.753,-5.4 5.337,-8.36 z"
       id="path68"
       style="display:block;fill:#14213d;fill-opacity:1" />
    <path
       fill="rgb(120,166,157)"
       d="m 1152.03,1065.93 c 5.66,-0.45 9.62,-0.57 11.34,5.64 -1.41,7.3 -3.4,8.12 -9.29,12.64 -10.52,5.66 -14.51,-7.83 -2.05,-18.28 z"
       id="path69"
       style="display:block;fill:#14213d;fill-opacity:1" />
    <path
       fill="rgb(120,166,157)"
       d="m 659.297,953.919 c 14,-0.704 14.392,12.62 7.367,21.095 -13.051,0.212 -14.206,-14.393 -7.367,-21.095 z"
       id="path87"
       style="display:block;fill:#14213d;fill-opacity:1" />
    <path
       fill="rgb(120,166,157)"
       d="m 722.005,1028.29 c 15.079,-11.1 29.344,-25.27 31.959,-44.347 5.108,-37.266 -27.771,-44.192 -51.936,-59.344 -29.492,-18.493 -16.477,-48.554 6.733,-64.91 17.978,-13.139 40.769,-23.499 62.109,-29.377 -22.368,16.599 -64.453,45.968 -38.216,78.289 19.346,23.831 61.379,31.684 57.433,71.048 -1.831,21.851 -25.035,43.021 -39.07,58.141 -2.869,3.09 -10.289,11.35 -11.905,14.75 3.236,3.88 27.731,31.37 28.392,33.23 8.939,-22.88 34.506,-27.06 55.755,-31.66 -10.458,7.53 -34.395,21.44 -22.485,36.11 16.44,20.24 45.958,6.17 66.824,11.94 31.255,8.64 32.901,36.5 11.785,58 9.227,4.09 19.001,8.64 28.373,12.24 4.19,1.44 6.46,2.26 10.765,3.11 16.656,5.48 33.74,9.55 51.073,12.19 1.749,0.28 1.054,0.15 3.082,0.71 -4.561,8.14 -5.015,11.21 -5.991,20.37 -16.647,0 -35.388,0.42 -51.866,-0.2 -0.762,4.23 6.992,13.59 10.912,14.76 55.816,-1.04 113.249,0.06 169.239,-0.22 3.99,-1.12 19.54,-12.22 23.22,-15.01 5.56,-1.95 29.98,-15.49 34.84,-18.99 4.94,-1.31 14.66,-6.73 16.23,-11.62 l -3.07,-0.95 c 12.9,-1.82 18.08,-11.41 21.11,-23.15 -1.41,-8.57 -4.87,-14.07 -12.54,-19.31 -15.06,-10.3 -20.75,-29.22 -7.12,-43.7 10.69,-11.36 34.4,-9.28 49.11,-8.08 14.59,1.2 28.7,-7.35 28.53,-23.88 -0.66,-18.62 -20.32,-33.08 -32.55,-45.39 32.44,6.58 78.17,19.14 61.33,68.61 -3.58,10.51 -20.82,13.57 -17.19,28.05 6.9,-8.58 22.45,-21.46 30.59,-30.6 8.42,-9.45 14.98,-19.08 22.95,-28.22 -16.89,-29.21 -67.75,-64.953 -24.95,-101.175 11.03,-9.334 26.98,-14.129 36.57,-25.065 25.07,-28.584 -9.38,-55.315 -29.88,-72.029 19.64,6.462 46.5,18.955 60.72,34.357 10.8,11.697 12.46,19.647 12.07,34.417 -12.45,25.187 -46.14,20.865 -60.63,45.846 -13.58,23.41 2.95,49.929 23.19,62.499 18.94,13.51 47.27,27.25 50.42,52.85 5.72,46.45 -38.14,84.91 -83.06,84.54 0.53,23.93 -10.04,31.78 -28.9,43.66 -4.61,0.9 -25.48,8.76 -29.32,11.4 -12.66,3.85 -22.53,6.73 -35.1,11.68 11.08,20.27 22.39,40.42 33.92,60.44 6.74,11.63 16.42,24.62 20.57,37.25 1.43,4.36 1.57,9.28 0.11,13.65 -1.41,4.24 -4.37,7.86 -8.54,9.61 -9.99,4.19 -175.54,2.01 -200.84,2.06 -4.61,3.06 -15.6,21.21 -19.27,26.94 1.94,-7.89 3.5,-18.51 4.93,-26.69 -28.6,-0.87 -60.612,-0.17 -89.498,-0.1 6.748,8.19 12.838,14.25 20.284,21.72 -7.797,-2.97 -48.949,-21.18 -51.701,-21.25 -76.999,-2.02 -158.286,1.39 -235,-0.66 -9.764,0.27 -24.941,2.21 -32.955,-4.51 -6.784,-5.53 -8.332,-16.91 -3.643,-24.51 23.303,-37.75 46.685,-78.72 73.336,-113.89 6.228,-8.21 43.978,-5.3 55.949,-5.06 -2.274,-2.19 -4.507,-4.42 -6.695,-6.69 -5.814,-6.13 -5.818,-9.83 -5.651,-17.91 -35.837,-0.22 -59.182,-10.03 -81.318,-39.6 -12.224,-16.33 -19.467,-35.55 -16.267,-56.17 5.217,-33.6 37.786,-41.64 61.454,-59.23 z"
       id="path3"
       style="display:inline;fill:#14213d;fill-opacity:1" />
    <g
       id="g90"
       style="display:inline;fill:#14213d;fill-opacity:1" />
    <path
       fill="#ffffff"
       d="m 1185.42,1238.65 c 5.67,-1.44 9.55,-3.82 16.12,-4.79 11.08,20.27 22.39,40.42 33.92,60.44 6.74,11.63 16.42,24.62 20.57,37.25 1.43,4.36 1.57,9.28 0.11,13.65 -1.41,4.24 -4.37,7.86 -8.54,9.61 -9.99,4.19 -175.54,2.01 -200.84,2.06 0.91,-3.57 10.23,-18.79 12.61,-22.05 0.34,-3.68 3.97,-10.3 7.45,-11.99 l -0.27,-1.75 c 2.9,-5.96 6.98,-12.59 12.06,-16.91 1.47,-2.99 1.46,-3.01 3.64,-5.52 3.23,-0.8 4.43,-0.8 6.78,-3.16 2.32,-7.97 2.68,-7.44 9.4,-12.36 1.59,-1.18 4.65,-2.84 6.46,-3.91 2.21,-2.88 4.46,-4.3 7.35,-6.49 8.32,0.06 16.65,0.28 24.92,-0.56 l 1.37,-0.65 c 0.85,-3.17 -1.38,-8.93 -2.4,-12.41 5.55,-3 12.8,-6.61 18.87,-8.19 5.24,-1.37 13.54,-1.95 18.25,-3.93 l 0.06,-2.8 c 2.38,-2.14 8.83,-4.26 12.11,-5.54 z"
       id="path16"
       style="display:inline" />
    <path
       fill="#ffffff"
       d="m 664.003,1334.54 c -1.163,-1.21 -4.133,-4.46 -3.627,-5.41 12.679,-23.83 50.2,-86.37 64.716,-103.78 3.42,-4.11 96.379,-2.19 103.431,-2.16 16.283,0.62 16.881,1.86 29.231,12.52 -1.564,5.39 -3.301,10.58 -0.012,15.81 -0.858,2.18 -0.452,1.74 -1.875,3.47 -3.019,6.71 -3.081,9.41 -3.066,16.79 -7.348,0.03 -18.043,-0.24 -25.108,0.44 12.872,1.25 28.23,-3.73 36.471,7.06 1.602,0.53 7.154,2.29 8.456,2.96 8.926,3.22 10.817,9.07 10.374,18.25 l -2.097,3.46 -76.369,0.1 c -2.347,5.67 -5.055,12.76 -7.63,18.2 15.849,2.27 61.027,-0.03 80.793,0.74 l 3.993,11.15 -147.77,0.07 c -16.566,-0.02 -55.583,-1.09 -69.911,0.33 z"
       id="path4"
       style="display:inline" />
    <path
       fill="#ffffff"
       d="m 925.731,1223.34 c 55.816,-1.04 113.249,0.06 169.239,-0.22 -3.13,2.43 -11.77,9.81 -14.93,10.18 l -0.36,-0.16 c -6.23,7.93 -12.47,16.29 -23.06,15.92 3.76,0.9 4.16,0.27 6,2.64 -1.3,2.17 -1.22,2.01 -3.37,3.38 l -10,17.06 c -3.92,10.58 -8.1,20.45 -9.27,31.74 l -123.846,0.04 c -0.9,-12.7 0.59,-19.32 4.825,-31.02 5.604,0.23 8.583,0.44 14.248,-0.32 1.283,-6.47 1.572,-9.74 2.03,-16.25 -2.047,-2.1 -4.267,-1.27 -8.31,-1.35 -3.364,-2.05 0.038,-19.43 -3.365,-23.85 -0.481,-0.63 -1.293,-5.46 -1.494,-6.58 z"
       id="path23"
       style="display:inline" />
    <g
       id="g93" />
    <path
       fill="#515556"
       d="m 879.907,457.074 287.193,0.013 -0.04,44.864 -0.04,23.22 -286.996,-0.098 -0.064,-21.034 c -0.405,-15.261 -0.089,-31.622 -0.053,-46.965 z"
       id="path45"
       style="display:inline;fill:#1a1a1a;fill-opacity:1" />
    <path
       fill="rgb(81,85,86)"
       d="m 799.664,1278.94 30.617,0.06 c -1.51,6.05 -3.837,12.06 -5.948,17.95 l -32.312,-0.02 c 2.21,-6.16 4.961,-12.02 7.643,-17.99 z"
       id="path11"
       style="display:block;fill:#1a1a1a;fill-opacity:1" />
    <path
       fill="rgb(81,85,86)"
       d="m 818.729,1233.05 29.379,-0.35 c -1.671,7.25 -2.317,9.56 -5.245,16.36 L 812.816,1249 c 1.534,-5.48 3.778,-10.68 5.913,-15.95 z"
       id="path14"
       style="display:block;fill:#1a1a1a;fill-opacity:1" />
    <path
       fill="rgb(81,85,86)"
       d="m 789.743,1255.43 c 9.956,-0.11 19.134,-0.13 29.122,0.24 -1.685,6.75 -2.532,10.5 -5.29,16.9 l -30.487,-0.29 c 2.059,-5.56 4.455,-11.32 6.655,-16.85 z"
       id="path12"
       style="display:block;fill:#1a1a1a;fill-opacity:1" />
    <path
       fill="rgb(81,85,86)"
       d="m 751.681,1304.03 40.204,-0.09 c -2.832,6.06 -6.469,12.53 -9.657,18.47 -13.29,0.19 -26.582,0.28 -39.873,0.26 z"
       id="path10"
       style="display:block;fill:#1a1a1a;fill-opacity:1" />
    <path
       fill="rgb(81,85,86)"
       d="m 841.702,1279 c 7.489,-0.08 14.978,0.02 22.462,0.28 1.602,0.53 7.154,2.29 8.456,2.96 -1.223,5.78 -2.403,9.29 -4.266,14.8 L 836.223,1297 c 1.347,-5.47 3.742,-12.48 5.479,-18 z"
       id="path5"
       style="display:block;fill:#1a1a1a;fill-opacity:1" />
    <path
       fill="rgb(81,85,86)"
       d="m 830.274,1255.3 25.593,-0.31 c -3.019,6.71 -3.081,9.41 -3.066,16.79 -7.348,0.03 -18.043,-0.24 -25.108,0.44 l -1.37,-1.23 c 0.263,-4.54 2.588,-11.14 3.951,-15.69 z"
       id="path6"
       style="display:block;fill:#1a1a1a;fill-opacity:1" />
    <path
       fill="rgb(81,85,86)"
       d="m 709.873,1278.96 c 25.999,0.18 51.999,0.2 77.999,0.06 -2.16,5.11 -5.408,13.44 -8.145,17.85 -25.819,-0.36 -53.886,0.86 -79.339,-0.39 2.84,-5.92 6.269,-11.78 9.485,-17.52 z"
       id="path7"
       style="display:block;fill:#1a1a1a;fill-opacity:1" />
    <path
       fill="rgb(81,85,86)"
       d="m 760.93,1255.5 c 5.65,-0.2 11.717,-0.06 17.402,-0.03 -1.817,5.52 -4.275,11.69 -6.345,17.2 -11.404,-0.64 -25.651,-0.37 -37.276,-0.43 l -20.855,-0.08 9.265,-16.22 z"
       id="path8"
       style="display:block;fill:#1a1a1a;fill-opacity:1" />
    <path
       fill="rgb(81,85,86)"
       d="m 696.803,1304.03 41.389,0.08 c -3.555,5.79 -7.208,12.5 -10.621,18.46 -13.544,0.21 -27.091,0.15 -40.632,-0.18 3.122,-6.38 6.385,-12.16 9.864,-18.36 z"
       id="path9"
       style="display:block;fill:#1a1a1a;fill-opacity:1" />
    <path
       fill="rgb(81,85,86)"
       d="m 778.546,1233 c 9.87,-0.05 19.741,-0.04 29.611,0.05 -2.266,5.22 -4.443,10.76 -6.605,16.05 l -30.125,-0.04 c 2.246,-5.31 4.768,-10.77 7.119,-16.06 z"
       id="path15"
       style="display:block;fill:#1a1a1a;fill-opacity:1" />
    <path
       fill="rgb(81,85,86)"
       d="m 1104.89,1279.22 c 27.06,-0.87 56.66,-0.3 83.91,-0.28 2.48,4.89 6.44,12.21 8.44,17.09 -29.11,1.79 -66.5,0.88 -96.26,0.87 l -2.55,-13.77 c 1.59,-1.18 4.65,-2.84 6.46,-3.91 z"
       id="path18"
       style="display:block;fill:#1a1a1a;fill-opacity:1" />
    <path
       fill="rgb(81,85,86)"
       d="m 1078.61,1304.17 21.7,-0.21 c 1.7,6.05 3.43,12.78 5.33,18.71 -12.94,0.23 -25.88,0.29 -38.82,0.16 l -0.27,-1.75 c 2.9,-5.96 6.98,-12.59 12.06,-16.91 z"
       id="path19"
       style="display:block;fill:#1a1a1a;fill-opacity:1" />
    <path
       fill="#515556"
       d="m 1185.42,1238.65 c 5.67,-1.44 9.55,-3.82 16.12,-4.79 11.08,20.27 22.39,40.42 33.92,60.44 6.74,11.63 16.42,24.62 20.57,37.25 1.43,4.36 1.57,9.28 0.11,13.65 -1.41,4.24 -4.37,7.86 -8.54,9.61 -9.99,4.19 -175.54,2.01 -200.84,2.06 0.91,-3.57 10.23,-18.79 12.61,-22.05 l 120.27,0.09 c 9.44,-0.01 44.78,0.48 51.24,-1.05 3.34,-2.71 2.17,-1.08 3.69,-5.04 -2.78,-6.86 -7.22,-14.45 -10.99,-20.95 -13.19,-22.76 -24.8,-46.59 -38.16,-69.22 z"
       id="path17"
       style="display:inline;fill:#1a1a1a;fill-opacity:1" />
    <path
       fill="rgb(81,85,86)"
       d="m 1148.52,1255.46 c 9.44,0.03 19.17,-0.24 28.64,-0.39 2.05,3.9 7.93,13.41 6.54,17.13 -10.39,0.23 -20.77,0.27 -31.16,0.11 -2.1,-4.51 -4.91,-10.48 -5.33,-15.33 z"
       id="path22"
       style="display:block;fill:#1a1a1a;fill-opacity:1" />
    <path
       fill="rgb(81,85,86)"
       d="m 1166.35,1304.5 c 11.5,-0.21 23,-0.23 34.5,-0.07 2.21,4.11 7.85,13.44 7.47,17.67 l -2.14,0.78 -35.05,0.02 c -2.26,-4.19 -7.96,-13.4 -7.34,-17.56 z"
       id="path20"
       style="display:block;fill:#1a1a1a;fill-opacity:1" />
    <path
       fill="rgb(81,85,86)"
       d="m 1114.51,1304.45 c 11.87,-0.29 23.75,-0.38 35.63,-0.29 1.95,4.45 6.03,12.88 6.68,17.33 l -1.09,1.39 h -36.97 c -2.04,-5.57 -4.34,-11.09 -5.44,-16.89 z"
       id="path21"
       style="display:block;fill:#1a1a1a;fill-opacity:1" />
    <path
       fill="rgb(81,85,86)"
       d="m 1031.25,1255.21 28,-0.13 -10,17.06 h -17.17 c -0.46,-5.63 -0.61,-11.29 -0.83,-16.93 z"
       id="path24"
       style="display:block;fill:#1a1a1a;fill-opacity:1" />
    <path
       fill="rgb(81,85,86)"
       d="m 1050.61,1233.06 c 9.58,-0.15 19.54,-0.51 29.07,0.08 -6.23,7.93 -12.47,16.29 -23.06,15.92 -2.63,0.09 -1.41,0.35 -3.62,-1.14 -1.66,-4.1 -1.92,-10.28 -2.39,-14.86 z"
       id="path25"
       style="display:block;fill:#1a1a1a;fill-opacity:1" />
    <path
       fill="rgb(81,85,86)"
       d="m 965.401,1279.08 c 10.388,-0.21 21.087,-0.06 31.501,-0.04 l -0.048,17.93 -31.998,0.03 c 0.084,-5.98 0.266,-11.95 0.545,-17.92 z"
       id="path27"
       style="display:block;fill:#1a1a1a;fill-opacity:1" />
    <path
       fill="rgb(81,85,86)"
       d="m 1007.97,1279.04 c 4.61,0.03 9.68,-0.03 14.25,-0.41 17.92,-1.48 18.13,3.16 17.84,18.48 l -31.98,-0.18 z"
       id="path26"
       style="display:block;fill:#1a1a1a;fill-opacity:1" />
    <path
       fill="rgb(81,85,86)"
       d="m 989.916,1255.32 29.924,-0.05 c 0.32,5.66 0.57,11.32 0.76,16.98 l -31.277,0.04 c -0.126,-6.63 -0.287,-10.4 0.593,-16.97 z"
       id="path30"
       style="display:block;fill:#1a1a1a;fill-opacity:1" />
    <path
       fill="rgb(81,85,86)"
       d="m 923.721,1278.98 31.073,0.04 -2.049,17.97 -31.78,0.2 c 0.692,-6.05 1.781,-12.19 2.756,-18.21 z"
       id="path28"
       style="display:block;fill:#1a1a1a;fill-opacity:1" />
    <path
       fill="rgb(81,85,86)"
       d="m 950.725,1255.56 c 8.968,-0.46 18.498,-0.26 27.52,-0.23 -0.01,5.23 1.31,14.02 -3.108,16.94 -9.472,0.09 -18.945,0.13 -28.418,0.12 0.33,-5.05 -0.232,-14.14 4.006,-16.83 z"
       id="path29"
       style="display:block;fill:#1a1a1a;fill-opacity:1" />
    <path
       fill="rgb(81,85,86)"
       d="m 1009.97,1232.94 c 9.61,-0.28 20.04,-0.06 29.71,-0.04 0.99,6.04 1.19,9.93 1.5,16.02 l -30.61,0.04 c -0.47,-4.69 -0.46,-11.18 -0.6,-16.02 z"
       id="path31"
       style="display:block;fill:#1a1a1a;fill-opacity:1" />
    <path
       fill="rgb(81,85,86)"
       d="m 969.808,1233.01 c 9.84,-0.24 19.683,-0.28 29.524,-0.12 0.078,5.41 -0.074,10.8 -0.183,16.22 l -30.236,-0.09 c 0.02,-5.42 0.479,-10.62 0.895,-16.01 z"
       id="path32"
       style="display:block;fill:#1a1a1a;fill-opacity:1" />
    <path
       fill="#515556"
       d="m 916.134,1303.92 123.846,-0.04 c -0.4,4.08 -1.33,15.02 -2.87,18.37 -31.51,-0.68 -65.084,-0.01 -96.878,-0.1 -5.087,-0.51 -12.035,-0.24 -17.278,-0.2 -2.407,-5.76 -4.641,-12.14 -6.82,-18.03 z"
       id="path37"
       style="display:inline;fill:#1a1a1a;fill-opacity:1" />
    <path
       fill="#515556"
       d="m 676.505,1356.83 c -9.764,0.27 -24.941,2.21 -32.955,-4.51 -6.784,-5.53 -8.332,-16.91 -3.643,-24.51 23.303,-37.75 46.685,-78.72 73.336,-113.89 6.228,-8.21 43.978,-5.3 55.949,-5.06 9.768,3.92 11.377,4.29 21.051,6.42 8.194,1.8 43.411,2.39 46.664,7.11 -2.776,0.27 -5.61,0.57 -8.384,0.8 -7.052,-0.03 -100.011,-1.95 -103.431,2.16 -14.516,17.41 -52.037,79.95 -64.716,103.78 -0.506,0.95 2.464,4.2 3.627,5.41 13.554,1.76 54.322,0.57 70.284,0.56 l 149.149,0.02 c 11.073,10.28 16.637,12.75 28.083,21.01 -54.523,0.85 -109.457,-0.34 -163.951,0.2 -17.99,0.18 -54.652,-1.23 -71.063,0.5 z"
       id="path34"
       style="display:block;fill:#1a1a1a;fill-opacity:1" />
    <path
       fill="#515556"
       d="m 804.528,1304.05 76.369,-0.1 c -2.607,6.19 -3.552,10.44 -5.462,16.82 -7.317,2.2 -65.887,0.64 -78.537,1.48 2.575,-5.44 5.283,-12.53 7.63,-18.2 z"
       id="path39"
       style="display:block;fill:#1a1a1a;fill-opacity:1" />
    <path
       fill="rgb(81,85,86)"
       d="m 736.659,1232.93 c 10.092,-0.04 20.184,-0.03 30.276,0.05 -1.972,4.62 -5.13,12.32 -8.156,16.07 l -31.099,-0.04 c 2.481,-5.42 5.933,-10.91 8.979,-16.08 z"
       id="path13"
       style="display:block;fill:#1a1a1a;fill-opacity:1" />
    <path
       fill="#515556"
       d="m 935.207,1272.58 c -4.061,-0.09 -8.674,0.16 -12.421,-1.17 0.189,-5.81 0.863,-9.34 5.075,-14.22 1.807,-2.1 6.181,-1.07 9.376,-0.86 -0.458,6.51 -0.747,9.78 -2.03,16.25 z"
       id="path42"
       style="display:block;fill:#1a1a1a;fill-opacity:1" />
    <path
       fill="#515556"
       d="m 1114.79,1271.85 c 5.85,-4.47 14.83,-9.16 21.34,-12.74 1.02,3.48 3.25,9.24 2.4,12.41 l -1.37,0.65 c -5.82,-0.59 -16.19,-0.31 -22.37,-0.32 z"
       id="path43"
       style="display:block;fill:#1a1a1a;fill-opacity:1" />
    <path
       fill="rgb(81,85,86)"
       d="m 1129.23,1176.84 c 11.75,0.02 25.41,0.33 36.96,-0.29 l 3.07,0.95 c -1.57,4.89 -11.29,10.31 -16.23,11.62 -22.59,-0.57 -65.07,-1.41 -86.95,0.12 l -4.31,-12.23 c 22.46,-0.21 44.96,0.36 67.46,-0.17 z"
       id="path48"
       style="display:block;fill:#1a1a1a;fill-opacity:1" />
    <path
       fill="rgb(81,85,86)"
       d="m 954.821,589.479 c 50.039,-0.638 100.079,-0.61 150.119,0.087 22.04,18.364 28.06,30.609 40.77,56.7 7.08,14.531 4.74,24.126 4.45,39.634 l -0.64,46.958 c -0.34,23.25 1.61,96.425 -4.82,113.973 l -0.32,-1.488 c -2.75,-12.709 -7.88,-22.72 -19.41,-29.795 -9.83,-6.079 -21.69,-7.957 -32.92,-5.213 -13.81,3.489 -20.95,11.81 -27.64,23.412 -7.32,-19.521 -16.32,-27.054 -36.56,-30.668 -24.87,0.617 -36.75,10.697 -45.146,33.73 -5.211,-15.113 -11.029,-25.439 -27.145,-31.47 -10.772,-4.071 -22.741,-3.56 -33.127,1.416 -11.973,5.86 -17.564,14.438 -21.869,26.368 -12.404,-33.364 -36.937,-39.296 -66.794,-23.611 17.067,-44.469 32.124,-89.532 48.762,-134.147 7.042,-18.882 13.801,-39.278 21.616,-57.759 12.56,-9.558 25.327,-18.841 38.292,-27.843 z"
       id="path51"
       style="display:block;fill:#1a1a1a;fill-opacity:1" />
    <path
       fill="rgb(81,85,86)"
       d="m 1019.75,816.205 c 16.71,-0.9 33.26,8.014 35.13,26.013 2.08,19.903 1.1,41.443 1.05,61.626 l 0.09,111.866 -25.2,0.09 -38.096,0.03 0.023,-107.189 c -0.016,-13.268 -0.048,-26.82 -0.043,-40.072 0.011,-25.236 -1.833,-44.232 27.046,-52.364 z"
       id="path52"
       style="display:block;fill:#1a1a1a;fill-opacity:1" />
    <path
       fill="rgb(81,85,86)"
       d="m 933.27,816.232 c 44.489,-3.263 40.518,35.694 39.493,67.475 -1.041,32.311 1.874,68.133 -0.729,99.996 -5.637,8.192 -10.078,15.246 -20.784,15.311 l -42.197,0.002 c 0.192,-33.295 0.182,-66.591 -0.028,-99.886 -0.056,-17.19 -0.431,-34.468 0.269,-51.634 0.672,-16.479 9.032,-25.783 23.976,-31.264 z"
       id="path53"
       style="display:block;fill:#1a1a1a;fill-opacity:1" />
    <path
       fill="rgb(81,85,86)"
       d="m 854.194,813.254 c 15.247,-0.893 31.528,6.071 35.179,21.819 4.916,21.204 0.252,48.424 2.24,70.41 0.84,9.295 0.609,25.021 -3.465,32.797 -3.543,6.822 -9.585,12.012 -16.863,14.486 l -39.153,-0.105 c 0.231,-17.962 -2.321,-115.619 2.362,-124.414 3.953,-7.424 11.889,-12.516 19.7,-14.993 z"
       id="path54"
       style="display:block;fill:#1a1a1a;fill-opacity:1" />
    <path
       fill="rgb(81,85,86)"
       d="m 1226.75,798.836 c 2.97,7.866 5.08,113.411 5.46,131.569 -11.32,-7.548 -22.17,-15.627 -33.14,-23.664 -7.22,0.331 -15.55,1.287 -22.83,1.947 -7.41,0.726 -8.21,1.378 -10.9,-5.859 -5.47,-14.68 -11.15,-29.179 -17.09,-43.679 10.43,-13.632 12.37,-16.025 12.74,-33.216 11.25,0.191 22.49,0.078 33.73,-0.34 10.69,-8.117 21.83,-17.981 32.03,-26.758 z"
       id="path55"
       style="display:block;fill:#1a1a1a;fill-opacity:1" />
    <path
       fill="rgb(81,85,86)"
       d="m 1182.25,920.413 c 3.07,-0.421 9.84,-0.549 13.21,-0.72 10.55,6.991 21.04,14.718 31.35,22.102 -7.06,9.159 -16.04,23.581 -22.58,33.556 -10.92,16.743 -22.07,33.339 -33.43,49.789 l -5.41,8.18 -19.56,-0.37 c -3.81,-17.56 -9.53,-35.18 -14.04,-52.779 10.8,-19.647 21.98,-38.6 32.19,-58.616 z"
       id="path56"
       style="display:block;fill:#1a1a1a;fill-opacity:1" />
    <path
       fill="rgb(81,85,86)"
       d="m 992.394,1028.7 63.616,-0.11 c -0.02,13.59 2.14,83.69 -3.96,90.35 -4.05,-0.47 -28.42,-29.49 -32.95,-34.63 -2.01,-2.47 -4.63,-5.21 -6.79,-7.61 -1.91,24.15 -2.58,51.27 -3.59,75.64 -16.966,-13.37 -17.046,-18.83 -16.404,-39.95 0.214,-7.02 0.147,-15.26 0.207,-22.37 0.104,-20.44 0.06,-40.88 -0.129,-61.32 z"
       id="path57"
       style="display:block;fill:#1a1a1a;fill-opacity:1" />
    <path
       fill="#515556"
       d="m 1095.6205,820.05359 c 16.71,-0.77811 33.26,6.92863 35.13,22.48995 2.08,17.20746 1.1,35.83021 1.05,53.27974 l 0.09,96.71555 -25.2,0.0778 -38.096,0.0259 0.023,-92.67197 c -0.016,-11.47107 -0.048,-23.18766 -0.043,-34.64489 0.011,-21.81819 -1.833,-38.24148 27.046,-45.27213 z"
       id="path52-0"
       style="display:block;fill:#1a1a1a;fill-opacity:1;stroke-width:0.92982" />
    <path
       fill="rgb(81,85,86)"
       d="m 1163.14,680.709 c 7.28,6.953 55.11,92.322 61.42,104.567 -4.81,3.428 -10.8,8.607 -15.5,12.454 l -18.3,15.303 -29.56,0.364 c 0.2,-44.235 0.84,-88.466 1.94,-132.688 z"
       id="path58"
       style="display:block;fill:#1a1a1a;fill-opacity:1" />
    <path
       fill="rgb(81,85,86)"
       d="m 978.76,538.893 c 28.92,0.452 59.01,0.005 88.03,-0.015 l 0.15,37.283 c -29.4,-0.159 -58.8,-0.129 -88.201,0.09 z"
       id="path59"
       style="display:block;fill:#1a1a1a;fill-opacity:1" />
    <path
       fill="rgb(81,85,86)"
       d="m 978.693,994.759 c 0.75,5.431 0.483,20.061 0.476,26.191 l -0.225,51.02 -25.93,0.14 c -5.168,-8.11 -10.522,-15.73 -16.028,-23.61 -8.841,-12.32 -16.634,-24.28 -25.884,-36.53 12.177,0.18 24.36,0.43 36.54,0.33 15.52,-0.13 21.958,-6.25 31.051,-17.541 z"
       id="path60"
       style="display:block;fill:#1a1a1a;fill-opacity:1" />
    <path
       fill="rgb(81,85,86)"
       d="m 1019.02,1095.91 c 3.75,3.13 14.84,15.81 18.54,19.86 11.37,12.66 22.97,25.12 34.8,37.37 -8.16,-0.15 -16.32,-0.19 -24.48,-0.14 3.51,12.08 7.54,24.01 12.05,35.75 -1.06,1.11 -11.04,6.06 -13.83,7.82 -3.41,-12.37 -8.49,-26.17 -12.84,-38.23 -6.85,4.09 -12.07,7.97 -18.52,12.71 1.9,-25.02 3.32,-50.07 4.28,-75.14 z"
       id="path61"
       style="display:block;fill:#ffffff;fill-opacity:1" />
    <path
       fill="rgb(81,85,86)"
       d="m 896.683,944.728 c 0.957,7.301 0.609,20.621 0.6,28.327 l -0.33,51.675 c -8.906,-7.5 -22.546,-21.79 -31.3,-30.351 -9.766,-8.808 -20.698,-20.084 -30.212,-29.419 28.198,0.042 44.06,6.711 61.242,-20.232 z"
       id="path62"
       style="display:block;fill:#1a1a1a;fill-opacity:1" />
    <path
       fill="rgb(81,85,86)"
       d="m 1080.86,538.931 54.22,-0.227 -0.03,37.489 c -17.87,-0.327 -36.41,-0.075 -54.34,-0.071 z"
       id="path63"
       style="display:block;fill:#1a1a1a;fill-opacity:1" />
    <path
       fill="rgb(81,85,86)"
       d="m 911.705,538.939 53.2,-0.033 0.1,37.467 c -17.804,-0.269 -35.611,-0.325 -53.416,-0.17 0.208,-12.42 0.247,-24.843 0.116,-37.264 z"
       id="path64"
       style="display:block;fill:#1a1a1a;fill-opacity:1" />
    <path
       fill="rgb(81,85,86)"
       d="m 1321.63,1268.36 c 16.44,-2.95 36.57,2.38 51.69,8.58 7.85,11.54 15,31.36 14.53,45.37 -0.96,28.69 -25.28,35.39 -49.1,35.17 -41.99,-1.55 -55.82,-35.08 -71.11,-68.09 17.57,-12.84 32.61,-18.38 53.99,-21.03 z"
       id="path73"
       style="display:block;fill:#1a1a1a;fill-opacity:1" />
    <path
       fill="rgb(81,85,86)"
       d="m 1265.96,1210.78 c 22.3,0.3 30.67,6.2 38.07,26.93 27.66,-0.76 47.27,6.23 63.06,30.29 -15.73,-4.73 -28.65,-5.81 -44.89,-7.07 -7.99,-0.62 -0.01,-16.32 -11.22,-18.97 -5,-1.19 -9.2,-1.16 -12.11,3.67 0.98,8.79 11.37,10.53 13.56,16.39 -5.83,2.73 -14.91,4.89 -21.31,7.06 -10.2,3.45 -17.61,7.68 -26.48,13.67 -6.98,-16.85 -10.82,-32.24 13.02,-40.24 15.32,-5.13 16.08,-9.94 1.93,-18.62 -8.84,-3.94 -31.63,-2.06 -42.95,-1.71 3.84,-2.64 24.71,-10.5 29.32,-11.4 z"
       id="path78"
       style="display:block;fill:#1a1a1a;fill-opacity:1" />
    <path
       fill="rgb(81,85,86)"
       d="m 930.305,1232.93 28.842,0.05 c -0.075,6.04 -0.583,10.16 -1.303,16.13 l -29.234,0.02 c 0.331,-5.22 1.105,-10.96 1.695,-16.2 z"
       id="path33"
       style="display:block;fill:#1a1a1a;fill-opacity:1" />
    <path
       fill="#515556"
       d="m 1068.2645,1004.5417 63.616,-0.095 c -0.02,11.7 2.14,72.0511 -3.96,77.7849 -14.9097,-9.9363 -42.32,7.7742 -43.33,28.755 -16.966,-11.5106 -17.046,-16.2113 -16.404,-34.3941 0.214,-6.0437 0.147,-13.1378 0.207,-19.259 0.104,-17.5973 0.06,-35.1947 -0.129,-52.7921 z"
       id="path57-9"
       style="display:block;fill:#1a1a1a;fill-opacity:1;stroke-width:0.927862" />
    <path
       fill="#515556"
       d="m 1016.92,1176.57 c 5.23,-0.27 10.56,-0.61 15.79,-0.68 l 5.31,14.2 c -6.53,-0.06 -15.13,-0.36 -21.46,0.05 6.15,0.91 17.22,0.88 23.78,1.06 l 2.89,4.8 c 7.4,4.54 17.53,-1.42 22.85,-6.76 21.88,-1.53 64.36,-0.69 86.95,-0.12 -4.86,3.5 -29.28,17.04 -34.84,18.99 -3.68,2.79 -19.23,13.89 -23.22,15.01 -55.99,0.28 -113.423,-0.82 -169.239,0.22 -3.92,-1.17 -11.674,-10.53 -10.912,-14.76 16.478,0.62 35.219,0.2 51.866,0.2 0.976,-9.16 1.43,-12.23 5.991,-20.37 9.729,-9.29 21.592,-14.68 35.324,-11.08 1.2,2.9 0.75,2.99 0.38,6.38 2.61,-0.22 6.16,-4.77 8.54,-7.14 z"
       id="path46"
       style="display:inline;fill:#1a1a1a;fill-opacity:1" />
    <path
       fill="#515556"
       d="m 928.003,1335.05 c 35.089,0.69 72.627,-0.11 107.927,-0.3 -0.96,6.35 -1.95,12.7 -2.98,19.03 -0.36,1.38 -0.04,0.54 -1.45,2.3 -5.24,0.38 -21.1,-0.14 -27.22,-0.11 -20.705,0.24 -41.409,0.25 -62.112,0.06 -6.022,-7.57 -9.286,-12.67 -14.165,-20.98 z"
       id="path44"
       style="display:inline;fill:#1a1a1a;fill-opacity:1" />
    <g
       id="g89"
       style="display:inline;fill:#1a1a1a;fill-opacity:1" />
    <path
       fill="#ffffff"
       d="m 1066.08,1189.24 c 21.88,-1.53 64.36,-0.69 86.95,-0.12 -4.86,3.5 -29.28,17.04 -34.84,18.99 -14.05,0.1 -133.98,1.72 -138.596,-0.69 -1.66,-4.33 2.492,-12.72 5.736,-15.07 6.527,-4.72 23.69,-2.54 31.23,-2.21 6.15,0.91 17.22,0.88 23.78,1.06 l 11.3413,-0.2708 c 3.4695,-0.547 8.1951,-0.6665 14.3987,-1.6892 z"
       id="path47"
       style="display:inline" />
    <path
       fill="#ffffff"
       d="m 1256.87,1109.7 c 6.9,-8.58 22.45,-21.46 30.59,-30.6 8.42,-9.45 14.98,-19.08 22.95,-28.22 18.24,39.56 -22.78,80.96 -53.54,58.82 z"
       id="path38"
       style="display:inline" />
    <path
       fill="#ffffff"
       d="m 844,1143.31 c 8.021,5.33 13.705,7.29 21.664,11.66 -1.461,3.54 -2.566,5.13 -1.833,8.86 4.843,4.54 11.148,-0.63 15.552,-3.67 9.227,4.09 19.001,8.64 28.373,12.24 4.19,1.44 6.46,2.26 10.765,3.11 16.656,5.48 33.74,9.55 51.073,12.19 1.749,0.28 1.054,0.15 3.082,0.71 -4.561,8.14 -5.015,11.21 -5.991,20.37 -16.647,0 -35.388,0.42 -51.866,-0.2 -6.465,-1.27 -15.597,-12.49 -22.435,-14.81 -20.125,-6.81 -76.278,-18.03 -48.384,-50.46 z"
       id="path35"
       style="display:block" />
    <path
       fill="#ffffff"
       d="m 739.112,1052.54 c 3.236,3.88 27.731,31.37 28.392,33.23 -0.121,0.83 -0.228,1.67 -0.32,2.51 -2.503,23.4 19.518,22.9 26.506,31.79 1.092,3.28 0.927,3.08 -0.042,6.44 -7.853,10.1 -29.499,2.8 -38.396,-2.83 -11.848,-7.53 -20.209,-19.48 -23.235,-33.19 -3.074,-13.85 -0.411,-26.09 7.095,-37.95 z"
       id="path36"
       style="display:block" />
    <path
       fill="#ffffff"
       d="m 940.232,1322.15 c 31.794,0.09 65.368,-0.58 96.878,0.1 -0.22,4.36 -0.03,7.15 -1.74,11.12 -4.54,0.74 -9.28,0.64 -13.88,0.62 -31.099,-0.17 -62.375,0.8 -93.456,0.05 l -4.826,-11.05 c 5.851,-0.13 11.197,-0.45 17.024,-0.84 z"
       id="path40"
       style="display:inline" />
    <path
       fill="#ffffff"
       d="m 1187.3,1153.4 c -3.03,11.74 -8.21,21.33 -21.11,23.15 -11.55,0.62 -25.21,0.31 -36.96,0.29 l 0.11,-0.97 c 3.02,-2.41 48.5,-18 57.96,-22.47 z"
       id="path50"
       style="display:inline" />
    <g
       id="g91"
       style="display:inline" />
    <path
       fill="#aacfc5"
       d="m 844,1143.31 c 15.002,-10.59 31.108,-7.29 21.664,11.66 -7.959,-4.37 -13.643,-6.33 -21.664,-11.66 z"
       id="path41"
       style="display:block;fill:#f6cc21;fill-opacity:1" />
  </g>
  <text
     xml:space="preserve"
     style="font-style:italic;font-weight:bold;font-size:1840px;font-family:'Trebuchet MS';-inkscape-font-specification:'Trebuchet MS Bold Italic';text-align:start;writing-mode:lr-tb;direction:ltr;text-anchor:start;fill:#14213d;fill-opacity:1;fill-rule:evenodd;stroke-width:37.7952"
     x="5001.3477"
     y="9826.5234"
     id="text94"><tspan
       id="tspan94"
       style="font-style:normal;font-variant:normal;font-weight:bold;font-stretch:normal;font-size:1840px;font-family:'Good Timing';-inkscape-font-specification:'Good Timing Bold';text-align:center;text-anchor:middle;stroke-width:37.7953"
       x="5001.3477"
       y="9826.5234"
       transform="translate(3826.8945)">SilentHID</tspan></text>
</svg>
